<svg xmlns="http://www.w3.org/2000/svg" width="180" height="48" alt="Lasergran Logo"><path d="M172 10.6h6.5A1.5 1.5 0 01180 12v21.5a1.5 1.5 0 01-1.5 1.5h-17.2zm-3.3 0h2.2L153.2 48l15.5-37.4zm-3 0h1.6l-15.7 33.6 14-33.6zm-3.1 0h1.4L150.5 39l12-28.4zm-2.8 0h1.2l-11.2 23.2 10-23.2zm-2.6 0h1l-7.4 15 6.4-15zm-3 0h.8l-5 10.1 4.2-10.1zm-2.6 0h.6l-2.8 5.3 2.2-5.3z" fill="#e20613"/><path d="M4.6 15c0-.3 0-.5-.2-.6a.6.6 0 00-.4 0H.6a.7.7 0 00-.5 0 .6.6 0 00-.1.5v17.7a.7.7 0 00.1.4.6.6 0 00.5.1h8.9a.7.7 0 00.5 0 .6.6 0 000-.5v-2-.5a.8.8 0 00-.5-.1H4.6zM16 26.2l1.7-5.9 1.8 6zm5.6 6.3a.8.8 0 00.2.5.8.8 0 00.5 0H26a1 1 0 00.4 0l.2-.4a.5.5 0 000-.2 1.3 1.3 0 000-.1l-6.2-17.5a.8.8 0 00-.3-.4.8.8 0 00-.5-.2h-2a.8.8 0 00-.6.2 1 1 0 00-.3.4l-6.1 17.4-.1.3a.4.4 0 000 .2.4.4 0 00.1.3.8.8 0 00.4 0h2.3a.8.8 0 00.5 0 .9.9 0 00.3-.5l1.2-3.8h5.1zm10.2-7a13 13 0 012.3 1.4 2.3 2.3 0 01.8 1.8 2 2 0 01-.5 1.4 1.8 1.8 0 01-1.2.5 2 2 0 01-1.5-.7 4.5 4.5 0 01-.8-1.1 5.1 5.1 0 00-.9-1.3 2 2 0 00-1.5-.7 2.2 2.2 0 00-1.3.5 2 2 0 00-.6 1.6 3.9 3.9 0 00.6 2 5.2 5.2 0 002 1.9 7.7 7.7 0 003.7.8 8.2 8.2 0 003-.6 5.3 5.3 0 002.4-1.8 5.6 5.6 0 001-3.3 5.9 5.9 0 00-.8-3 6.4 6.4 0 00-1.8-2 15 15 0 00-2-1.2 18 18 0 01-2.9-1.8 2 2 0 01-.8-1.7 1.9 1.9 0 01.5-1.3 1.5 1.5 0 011.1-.5 1.9 1.9 0 011.4.6 4.7 4.7 0 01.7 1 4 4 0 00.8 1 1.7 1.7 0 001.2.4 1.9 1.9 0 001.4-.5 1.9 1.9 0 00.5-1.3A3 3 0 0038 16a5 5 0 00-2-1.6 8 8 0 00-3.3-.6 6.5 6.5 0 00-4.2 1.3 5.2 5.2 0 00-1.7 4.1 5.5 5.5 0 00.7 2.7 6.2 6.2 0 001.5 1.7 9.8 9.8 0 001.4 1zm19-.6a1 1 0 00.5 0 .6.6 0 00.2-.6v-1.8c0-.3 0-.5-.2-.5a1 1 0 00-.5-.1h-4.5v-4.6h5.4a.9.9 0 00.6 0l.2-.7V15l-.2-.5a1 1 0 00-.6 0h-9.3a.8.8 0 00-.6.2 1 1 0 00-.1.6v17.3c0 .3 0 .5.2.6a1 1 0 00.5 0h9.4a.9.9 0 00.5 0 .7.7 0 00.2-.6v-1.8q0-.4-.2-.5a.8.8 0 00-.5-.2h-5.5v-5zm9-8.2h.8a4 4 0 011.2.2 2.1 2.1 0 011.2 1 4.5 4.5 0 01.5 2.3 3.5 3.5 0 01-.7 2.4 2.6 2.6 0 01-1.5.8 5.8 5.8 0 01-1.4 0zm-4.4 15.8a.6.6 0 00.1.5.7.7 0 00.5 0h3.2a.8.8 0 00.5 0 .8.8 0 00.2-.6v-6.3a.9.9 0 010-.4.3.3 0 01.3-.2.5.5 0 01.4.2 1.4 1.4 0 01.2.3l3.2 6.5a1.1 1.1 0 00.4.5 1.4 1.4 0 00.7 0h3.4a.8.8 0 00.5 0 .4.4 0 00.1-.3.5.5 0 000-.3l-.2-.3-4.5-7.6A6.6 6.6 0 0067 23a4.9 4.9 0 001.1-3.3 5.2 5.2 0 00-1-3.1 5.2 5.2 0 00-2.1-1.7 9.3 9.3 0 00-2.5-.6 18.6 18.6 0 00-2 0H57a8.2 8.2 0 00-1.2.3.7.7 0 00-.4.2 1.2 1.2 0 000 .6zm25-4.1a2.8 2.8 0 01-.3 1.3c-.1.4-.6.6-1.4.7a3.3 3.3 0 01-3-2 11.7 11.7 0 01-1-5.2 15.2 15.2 0 01.2-3 6.4 6.4 0 011.1-2.6 2.7 2.7 0 012.2-1 2.2 2.2 0 011.5.5 5.7 5.7 0 011 1.2 4.4 4.4 0 00.7 1 1.9 1.9 0 001.3.5 2 2 0 001.4-.5 1.8 1.8 0 00.6-1.4 3.2 3.2 0 00-.6-1.7 5.2 5.2 0 00-2-1.7 8.4 8.4 0 00-3.7-.7 8.2 8.2 0 00-4.7 1.3 8.3 8.3 0 00-3 3.6 12.4 12.4 0 00-1 5 13.6 13.6 0 00.6 3.8 9 9 0 001.6 3.2 7 7 0 003 2.2 7.5 7.5 0 001.5.5 12 12 0 002 .1 10.4 10.4 0 003-.4 6.8 6.8 0 001.8-.8 4.5 4.5 0 001-.8 1.7 1.7 0 00.4-.7 3.2 3.2 0 00.1-1v-6.3a.9.9 0 000-.6l-.6-.2h-5.8a.7.7 0 00-.5.1l-.2.5V25c0 .3 0 .5.2.5a.9.9 0 00.5.1h2.1zm12-11.7h.7a4 4 0 011.3.2 2.1 2.1 0 011.2 1 4.6 4.6 0 01.5 2.3 3.6 3.6 0 01-.7 2.4 2.6 2.6 0 01-1.5.8 5.9 5.9 0 01-1.4 0zM88 32.6a.6.6 0 00.2.5.8.8 0 00.5 0h3.1a.8.8 0 00.6 0 .8.8 0 00.2-.6v-6.3a1.1 1.1 0 010-.4.3.3 0 01.3-.2.5.5 0 01.4.2 1.1 1.1 0 01.2.3l3.2 6.5a1.2 1.2 0 00.4.5 1.4 1.4 0 00.6 0h3.5a.8.8 0 00.4 0 .4.4 0 00.2-.3.6.6 0 000-.3 2 2 0 00-.2-.3L97 24.6a6.5 6.5 0 002.5-1.7 4.9 4.9 0 001.1-3.3 4.8 4.8 0 00-3.1-4.8 9.2 9.2 0 00-2.5-.6 18.4 18.4 0 00-2 0h-3.4a8 8 0 00-1.2.3.7.7 0 00-.4.2 1.1 1.1 0 000 .6zm19.8-6.3l1.8-5.9 1.8 6zm5.6 6.3a.7.7 0 00.3.5.8.8 0 00.5 0h3.5a1.1 1.1 0 00.4 0c.2 0 .2-.2.2-.4a.5.5 0 000-.2 1.3 1.3 0 000-.1L112 14.9a1 1 0 00-.3-.4.8.8 0 00-.5-.2h-2a.8.8 0 00-.6.2.8.8 0 00-.2.4l-6.2 17.4-.1.3a.6.6 0 000 .2.4.4 0 00.2.3.7.7 0 00.3 0h2.4a.8.8 0 00.5 0 .8.8 0 00.3-.5l1.2-3.8h5.1zM123.8 15a1.4 1.4 0 00-.5-.4 1 1 0 00-.6-.2h-2.5a.8.8 0 00-.5.2.6.6 0 00-.2.5v17.6a.6.6 0 00.2.5.7.7 0 00.5 0h2.1a.7.7 0 00.6 0 .8.8 0 00.1-.6V21.4l7.2 11.2a1.6 1.6 0 00.4.5 1.2 1.2 0 00.6 0h1.8a.5.5 0 00.6-.5V15a.8.8 0 000-.5c-.2-.1-.3-.2-.6-.1h-2.2a.5.5 0 00-.6.5v10.2z" fill="#7c7c7c"/></svg>